<svg width="500" height="500" viewBox="0 0 500 500" fill="none" xmlns="http://www.w3.org/2000/svg">
<rect x="332.5" y="84.5" width="83" height="83" rx="5.5" fill="url(#paint0_linear_2_5)" stroke="url(#paint1_linear_2_5)"/>
<rect x="84.5" y="331.5" width="82" height="83" rx="5.5" fill="url(#paint2_linear_2_5)" stroke="url(#paint3_linear_2_5)"/>
<mask id="path-3-inside-1_2_5" fill="white">
<rect x="16" y="18" width="219" height="216" rx="28"/>
</mask>
<rect x="16" y="18" width="219" height="216" rx="28" stroke="url(#paint4_linear_2_5)" stroke-width="64" mask="url(#path-3-inside-1_2_5)"/>
<mask id="path-4-inside-2_2_5" fill="white">
<rect x="265" y="18" width="218" height="216" rx="28"/>
</mask>
<rect x="265" y="18" width="218" height="216" rx="28" stroke="url(#paint5_linear_2_5)" stroke-width="64" mask="url(#path-4-inside-2_2_5)"/>
<mask id="path-5-inside-3_2_5" fill="white">
<rect x="16" y="265" width="219" height="216" rx="28"/>
</mask>
<rect x="16" y="265" width="219" height="216" rx="28" stroke="url(#paint6_linear_2_5)" stroke-width="64" mask="url(#path-5-inside-3_2_5)"/>
<path d="M441.178 289.75C443.011 291.917 443.928 294.167 443.928 296.5C443.928 297.5 443.844 298.583 443.678 299.75C443.678 300.75 443.594 301.667 443.428 302.5C442.928 304.333 441.844 306.083 440.178 307.75C438.844 308.75 437.011 309.5 434.678 310C433.511 310.333 432.344 310.583 431.178 310.75C430.011 310.917 428.761 311.167 427.428 311.5C426.261 311.667 425.094 311.75 423.928 311.75C422.761 311.75 421.511 311.75 420.178 311.75H407.428C404.428 311.917 401.428 312 398.428 312C395.594 312 392.761 312 389.928 312C390.094 317.167 390.178 322.75 390.178 328.75C390.178 334.583 390.094 341.417 389.928 349.25C389.928 357.083 389.844 366.167 389.678 376.5C389.678 386.833 389.678 398.833 389.678 412.5V431.5C389.678 433.167 389.761 434.417 389.928 435.25C389.928 435.917 389.928 436.583 389.928 437.25C389.928 437.75 389.844 438.417 389.678 439.25C389.344 440.75 389.094 442.5 388.928 444.5C388.928 445.333 388.844 446.167 388.678 447C388.511 447.667 388.261 448.417 387.928 449.25C387.261 449.917 386.928 450.417 386.928 450.75L386.178 452.25C385.344 453.917 383.761 455.5 381.428 457C377.761 458.833 373.678 459.25 369.178 458.25C366.344 457.917 364.178 457.167 362.678 456C361.178 454.5 360.094 453 359.428 451.5C358.428 449.667 357.844 447.917 357.678 446.25C357.178 444.75 356.928 443.167 356.928 441.5V313C355.928 313 353.844 313 350.678 313C347.511 313 344.094 313 340.428 313C336.928 312.833 333.594 312.667 330.428 312.5C327.261 312.333 325.094 312.167 323.928 312C322.928 311.833 321.344 311.583 319.178 311.25C317.178 310.917 315.511 310.583 314.178 310.25C310.678 309.25 307.928 307.667 305.928 305.5C304.094 303.333 303.178 300.917 303.178 298.25C303.178 297.25 303.178 296.25 303.178 295.25C303.178 294.25 303.344 293.333 303.678 292.5C304.178 290.5 305.511 288.833 307.678 287.5C308.344 287 309.344 286.417 310.678 285.75C312.178 284.917 313.594 284.333 314.928 284C316.928 283.333 319.428 282.833 322.428 282.5C323.761 282.333 325.094 282.25 326.428 282.25C327.761 282.25 329.178 282.25 330.678 282.25C336.511 282.25 342.011 282.25 347.178 282.25C352.511 282.25 358.094 282.167 363.928 282C373.594 281.833 383.178 281.833 392.678 282C402.344 282 411.928 282.167 421.428 282.5C423.594 282.667 425.678 282.917 427.678 283.25C429.678 283.583 431.678 284.167 433.678 285C435.178 285.5 436.594 286.167 437.928 287C439.261 287.667 440.344 288.583 441.178 289.75Z" fill="url(#paint7_linear_2_5)"/>
<path d="M166.107 81.45C167.207 82.75 167.757 84.1 167.757 85.5C167.757 86.1 167.707 86.75 167.607 87.45C167.607 88.05 167.557 88.6 167.457 89.1C167.157 90.2 166.507 91.25 165.507 92.25C164.707 92.85 163.607 93.3 162.207 93.6C161.507 93.8 160.807 93.95 160.107 94.05C159.407 94.15 158.657 94.3 157.857 94.5C157.157 94.6 156.457 94.65 155.757 94.65C155.057 94.65 154.307 94.65 153.507 94.65H145.857C144.057 94.75 142.257 94.8 140.457 94.8C138.757 94.8 137.057 94.8 135.357 94.8C135.457 97.9 135.507 101.25 135.507 104.85C135.507 108.35 135.457 112.45 135.357 117.15C135.357 121.85 135.307 127.3 135.207 133.5C135.207 139.7 135.207 146.9 135.207 155.1V166.5C135.207 167.5 135.257 168.25 135.357 168.75C135.357 169.15 135.357 169.55 135.357 169.95C135.357 170.25 135.307 170.65 135.207 171.15C135.007 172.05 134.857 173.1 134.757 174.3C134.757 174.8 134.707 175.3 134.607 175.8C134.507 176.2 134.357 176.65 134.157 177.15C133.757 177.55 133.557 177.85 133.557 178.05L133.107 178.95C132.607 179.95 131.657 180.9 130.257 181.8C128.057 182.9 125.607 183.15 122.907 182.55C121.207 182.35 119.907 181.9 119.007 181.2C118.107 180.3 117.457 179.4 117.057 178.5C116.457 177.4 116.107 176.35 116.007 175.35C115.707 174.45 115.557 173.5 115.557 172.5V95.4C114.957 95.4 113.707 95.4 111.807 95.4C109.907 95.4 107.857 95.4 105.657 95.4C103.557 95.3 101.557 95.2 99.6566 95.1C97.7566 95 96.4566 94.9 95.7566 94.8C95.1566 94.7 94.2066 94.55 92.9066 94.35C91.7066 94.15 90.7066 93.95 89.9066 93.75C87.8066 93.15 86.1566 92.2 84.9566 90.9C83.8566 89.6 83.3066 88.15 83.3066 86.55C83.3066 85.95 83.3066 85.35 83.3066 84.75C83.3066 84.15 83.4066 83.6 83.6066 83.1C83.9066 81.9 84.7066 80.9 86.0066 80.1C86.4066 79.8 87.0066 79.45 87.8066 79.05C88.7066 78.55 89.5566 78.2 90.3566 78C91.5566 77.6 93.0566 77.3 94.8566 77.1C95.6566 77 96.4566 76.95 97.2566 76.95C98.0566 76.95 98.9066 76.95 99.8066 76.95C103.307 76.95 106.607 76.95 109.707 76.95C112.907 76.95 116.257 76.9 119.757 76.8C125.557 76.7 131.307 76.7 137.007 76.8C142.807 76.8 148.557 76.9 154.257 77.1C155.557 77.2 156.807 77.35 158.007 77.55C159.207 77.75 160.407 78.1 161.607 78.6C162.507 78.9 163.357 79.3 164.157 79.8C164.957 80.2 165.607 80.75 166.107 81.45Z" fill="url(#paint8_linear_2_5)"/>
<defs>
<linearGradient id="paint0_linear_2_5" x1="416" y1="126" x2="332" y2="126" gradientUnits="userSpaceOnUse">
<stop stop-color="#2DD4BF"/>
<stop offset="1" stop-color="#60A5FA"/>
</linearGradient>
<linearGradient id="paint1_linear_2_5" x1="416" y1="126" x2="332" y2="126" gradientUnits="userSpaceOnUse">
<stop stop-color="#2DD4BF"/>
<stop offset="1" stop-color="#60A5FA"/>
</linearGradient>
<linearGradient id="paint2_linear_2_5" x1="167" y1="373" x2="84" y2="373" gradientUnits="userSpaceOnUse">
<stop stop-color="#2DD4BF"/>
<stop offset="1" stop-color="#60A5FA"/>
</linearGradient>
<linearGradient id="paint3_linear_2_5" x1="125.5" y1="331" x2="125.5" y2="415" gradientUnits="userSpaceOnUse">
<stop stop-color="#2DD4BF"/>
<stop offset="1" stop-color="#60A5FA"/>
</linearGradient>
<linearGradient id="paint4_linear_2_5" x1="235" y1="126" x2="16" y2="126" gradientUnits="userSpaceOnUse">
<stop stop-color="#2DD4BF"/>
<stop offset="1" stop-color="#60A5FA"/>
</linearGradient>
<linearGradient id="paint5_linear_2_5" x1="483" y1="126" x2="265" y2="126" gradientUnits="userSpaceOnUse">
<stop stop-color="#2DD4BF"/>
<stop offset="1" stop-color="#60A5FA"/>
</linearGradient>
<linearGradient id="paint6_linear_2_5" x1="235" y1="373" x2="16" y2="373" gradientUnits="userSpaceOnUse">
<stop stop-color="#2DD4BF"/>
<stop offset="1" stop-color="#60A5FA"/>
</linearGradient>
<linearGradient id="paint7_linear_2_5" x1="454" y1="383.5" x2="293" y2="383.5" gradientUnits="userSpaceOnUse">
<stop stop-color="#2DD4BF"/>
<stop offset="1" stop-color="#60A5FA"/>
</linearGradient>
<linearGradient id="paint8_linear_2_5" x1="206" y1="137.5" x2="45" y2="137.5" gradientUnits="userSpaceOnUse">
<stop stop-color="#2DD4BF"/>
<stop offset="1" stop-color="#60A5FA"/>
</linearGradient>
</defs>
</svg>
